<svg width="19" height="19" viewBox="0 0 19 19" fill="none" xmlns="http://www.w3.org/2000/svg">
<g clip-path="url(#clip0_519_1228)">
<path d="M18.4823 9.53807C18.4823 11.0432 18.5084 12.5491 18.476 14.0536C18.4352 15.9452 17.5526 17.3258 15.8361 18.1466C15.2752 18.4149 14.6713 18.5338 14.0506 18.5346C11.006 18.5381 7.96146 18.5416 4.91688 18.5346C2.7436 18.5289 0.906013 16.9449 0.557639 14.797C0.515412 14.5358 0.492188 14.2746 0.492188 14.0099C0.492891 11.0285 0.492188 8.04769 0.492891 5.06623C0.493595 2.86762 1.92791 1.09424 4.08008 0.631705C4.35526 0.572569 4.63396 0.540888 4.91618 0.540888C7.96075 0.540888 11.0053 0.53596 14.0506 0.542296C16.276 0.547224 18.148 2.20093 18.4415 4.4094C18.4697 4.62341 18.4852 4.83954 18.4844 5.05708C18.4816 6.55098 18.483 8.04417 18.483 9.53807H18.4823ZM9.48797 2.33681C7.98327 2.33681 6.47858 2.32976 4.97389 2.33892C3.45371 2.34807 2.29458 3.50545 2.29106 5.02681C2.28402 8.03713 2.28332 11.0475 2.29106 14.0578C2.29528 15.57 3.4516 16.7316 4.96404 16.7365C7.97905 16.7464 10.9948 16.7464 14.0098 16.7365C15.5152 16.7316 16.6764 15.5798 16.6821 14.0761C16.694 11.0482 16.6877 8.02024 16.6828 4.99231C16.6821 4.49247 16.5512 4.01938 16.2802 3.59416C15.7418 2.74865 14.9522 2.34807 13.9654 2.34033C12.4727 2.32906 10.9793 2.33751 9.48656 2.33751L9.48797 2.33681Z" fill="#636265"/>
<path d="M13.9853 9.52428C13.9881 12.0481 12.0126 14.0348 9.49727 14.0377C6.97632 14.0398 4.99094 12.0608 4.99023 9.54329C4.98953 7.02224 6.96857 5.03977 9.48672 5.03906C11.9985 5.03906 13.9818 7.01661 13.9853 9.52357V9.52428ZM6.78629 9.53906C6.78629 11.0625 7.96936 12.2431 9.49235 12.241C11.0076 12.2389 12.185 11.0625 12.1885 9.54681C12.1921 8.02264 11.0139 6.8385 9.49094 6.83639C7.96724 6.83428 6.78559 8.0156 6.78629 9.53906Z" fill="#636265"/>
<path d="M14.8855 5.03223C14.8905 5.52785 14.4781 5.9411 13.9819 5.93758C13.4899 5.93406 13.0902 5.53489 13.086 5.04208C13.0817 4.54717 13.4942 4.13392 13.9896 4.13673C14.4816 4.13955 14.8813 4.53872 14.8855 5.03152V5.03223Z" fill="#636265"/>
</g>
<defs>
<clipPath id="clip0_519_1228">
<rect width="18" height="18" fill="white" transform="translate(0.492188 0.539062)"/>
</clipPath>
</defs>
</svg>
