<svg width="19" height="19" viewBox="0 0 19 19" fill="none" xmlns="http://www.w3.org/2000/svg">
<g clip-path="url(#clip0_519_1221)">
<path d="M4.53397 6.51562H0.792969V18.5396H4.53397V6.51562Z" fill="#636265"/>
<path d="M2.66409 4.87306C1.46409 4.87306 0.496094 3.90306 0.496094 2.70606C0.496094 1.51006 1.46409 0.539062 2.66409 0.539062C3.85909 0.539062 4.83009 1.51006 4.83009 2.70606C4.83009 3.90306 3.86009 4.87306 2.66409 4.87306Z" fill="#636265"/>
<path d="M18.5309 18.5418H14.7939V12.6947C14.7939 11.3007 14.7699 9.50675 12.8519 9.50675C10.9069 9.50675 10.6109 11.0268 10.6109 12.5948V18.5418H6.87891V6.51675H10.4609V8.16075H10.5119C11.0099 7.21575 12.2299 6.21875 14.0479 6.21875C17.8319 6.21875 18.5309 8.70875 18.5309 11.9467V18.5418Z" fill="#636265"/>
</g>
<defs>
<clipPath id="clip0_519_1221">
<rect width="18.034" height="18.002" fill="white" transform="translate(0.496094 0.539062)"/>
</clipPath>
</defs>
</svg>
