<svg width="128" height="20" viewBox="0 0 128 20" fill="none" xmlns="http://www.w3.org/2000/svg">
<path d="M16.1005 18.8103V6.02395L10.9532 18.8103H8.53158L3.42868 6.07055V18.8103H0.703125V1.44336H4.42901L9.78832 14.6958L15.0748 1.44336H18.8703V18.8103H16.1005Z" fill="white"/>
<path d="M25.2533 11.9778L28.1656 11.5117C28.8177 11.4152 29.0045 11.0723 29.0045 10.6529C29.0045 9.64755 28.3524 8.83863 26.8614 8.83863C25.44 8.83863 24.6486 9.79403 24.5315 10.9958L22.0624 10.4065C22.2713 8.34928 24.0409 6.51172 26.8392 6.51172C30.334 6.51172 31.6604 8.59562 31.6604 10.9691V16.8979C31.6604 17.9765 31.7775 18.6856 31.7997 18.8087H29.283C29.2609 18.7355 29.1659 18.2461 29.1659 17.2907C28.6309 18.1962 27.5135 19.1782 25.6711 19.1782C23.2938 19.1782 21.8281 17.4638 21.8281 15.5763C21.8281 13.4492 23.3191 12.2741 25.2533 11.9778ZM29.0045 13.8653V13.326L26.0447 13.792C25.2058 13.9385 24.5315 14.4279 24.5315 15.4099C24.5315 16.2188 25.114 16.9545 26.1839 16.9545C27.7003 16.9512 29.0045 16.1922 29.0045 13.8653Z" fill="white"/>
<path d="M41.5554 9.70044C41.2515 9.6505 40.9508 9.6272 40.6691 9.6272C38.5735 9.6272 37.6175 10.9022 37.6175 13.1292V18.8117H34.9141V6.88085H37.5447V8.79164C38.0796 7.49337 39.3395 6.73438 40.8305 6.73438C41.1566 6.73438 41.4351 6.78431 41.5523 6.80761L41.5554 9.70044Z" fill="white"/>
<path d="M49.7811 11.931L54.5326 18.8152H51.2246L47.8944 13.9416L46.4984 15.4862V18.8185H43.8203V1.08203H46.4984V11.7146L50.8542 6.88766H54.4408L49.7811 11.931Z" fill="white"/>
<path d="M65.9908 15.4085C65.3862 17.4891 63.5913 19.1802 60.8657 19.1802C57.792 19.1802 55.0664 16.83 55.0664 12.7853C55.0664 9.01369 57.7223 6.51367 60.5872 6.51367C64.082 6.51367 66.1301 8.94045 66.1301 12.7121C66.1301 13.1782 66.0826 13.571 66.0604 13.6176H57.7666C57.8363 15.4318 59.188 16.7301 60.8657 16.7301C62.496 16.7301 63.3349 15.8246 63.7084 14.6495L65.9908 15.4085ZM63.4077 11.537C63.3602 10.1422 62.477 8.89052 60.6125 8.89052C58.9126 8.89052 57.9344 10.262 57.8395 11.537H63.4077Z" fill="white"/>
<path d="M72.1409 6.88287H74.4929V9.40618H72.1409V14.9422C72.1409 15.9941 72.584 16.4368 73.5844 16.4368C73.9579 16.4368 74.4011 16.3636 74.515 16.3403V18.6905C74.3504 18.7638 73.8408 18.9602 72.8626 18.9602C70.767 18.9602 69.4628 17.6386 69.4628 15.4082V9.40618H67.3672V6.88287H67.9497C69.1621 6.88287 69.697 6.07394 69.697 5.022V3.23438H72.144L72.1409 6.88287Z" fill="white"/>
<path d="M96.1338 1.44336H99.0208L94.3865 18.8103H91.4963L87.4887 5.68107L83.4842 18.8103H80.6194L75.9375 1.44336H78.872L82.18 14.1332L86.0483 1.44336H88.9607L92.8986 14.2297L96.1338 1.44336Z" fill="white"/>
<path d="M102.4 0.832031C103.378 0.832031 104.169 1.66426 104.169 2.69289C104.169 3.72153 103.378 4.53045 102.4 4.53045C101.444 4.53045 100.652 3.72153 100.652 2.69289C100.652 1.66426 101.444 0.832031 102.4 0.832031ZM101.07 18.8115V6.88067H103.748V18.8115H101.07Z" fill="white"/>
<path d="M108.598 14.8931C108.69 15.9717 109.459 16.9271 110.903 16.9271C112.02 16.9271 112.603 16.2913 112.603 15.5556C112.603 14.9198 112.185 14.4304 111.276 14.234L109.598 13.8412C107.595 13.3751 106.547 12.0036 106.547 10.3625C106.547 8.2819 108.364 6.51758 110.716 6.51758C113.885 6.51758 114.91 8.67471 115.094 9.84982L112.812 10.5356C112.72 9.84982 112.229 8.74795 110.716 8.74795C109.76 8.74795 109.086 9.38377 109.086 10.1195C109.086 10.7553 109.529 11.2213 110.228 11.3678L111.954 11.734C114.097 12.2233 115.214 13.5948 115.214 15.3592C115.214 17.1734 113.818 19.1808 110.928 19.1808C107.642 19.1808 106.385 16.9271 106.246 15.5789L108.598 14.8931Z" fill="white"/>
<path d="M127.858 15.4085C127.253 17.4891 125.458 19.1802 122.733 19.1802C119.659 19.1802 116.934 16.83 116.934 12.7853C116.934 9.01369 119.59 6.51367 122.454 6.51367C125.949 6.51367 127.997 8.94045 127.997 12.7121C127.997 13.1782 127.95 13.571 127.928 13.6176H119.634C119.703 15.4318 121.055 16.7301 122.733 16.7301C124.363 16.7301 125.202 15.8246 125.576 14.6495L127.858 15.4085ZM125.272 11.537C125.224 10.1422 124.341 8.89052 122.477 8.89052C120.777 8.89052 119.798 10.262 119.703 11.537H125.272Z" fill="white"/>
</svg>
