<svg width="63" height="21" viewBox="0 0 63 21" fill="none" xmlns="http://www.w3.org/2000/svg">
<path d="M56.5685 18.3672V18.6668H56.0177V20.1781H55.6758V18.6668H55.125V18.3672H56.5685ZM58.4267 20.1781L58.3634 19.1129C58.3571 18.9731 58.3571 18.7999 58.3507 18.6069H58.3317C58.2874 18.7667 58.2368 18.9797 58.1861 19.1462L57.8759 20.1515H57.5213L57.2111 19.1195C57.1795 18.9797 57.1288 18.7667 57.0908 18.6069H57.0718C57.0718 18.7733 57.0655 18.9464 57.0592 19.1129L56.9959 20.1781H56.6666L56.7933 18.3705H57.3061L57.6037 19.256C57.6416 19.3958 57.6733 19.529 57.7176 19.7154H57.7239C57.7683 19.549 57.8063 19.3958 57.8442 19.2627L58.1418 18.3705H58.6356L58.7686 20.1781H58.4267Z" fill="white"/>
<path d="M62.3649 5.0433L57.5659 0L47.9711 10.0899L40.7757 2.52332L33.5804 10.0899L26.385 2.52332L19.1897 10.0899L11.9944 2.52332L0 15.1332L4.79584 20.1799L11.9944 12.6133L19.1897 20.1799L26.385 12.6133L33.5804 20.1799L40.7757 12.6133L47.9711 20.1799L62.3649 5.0433Z" fill="white"/>
</svg>
